HIERARCHY
ROOT Hips
{
	OFFSET 0.000000 0.000000 0.000000 
	CHANNELS 6 Xposition Yposition Zposition Zrotation Yrotation Xrotation
	JOINT LeftUpLeg
	{
		OFFSET 1.363060 -1.794630 0.839290 
		CHANNELS 3 Zrotation Yrotation Xrotation
		JOINT LeftLeg
		{
			OFFSET 2.448110 -6.726130 0.000000 
			CHANNELS 3 Zrotation Yrotation Xrotation
			JOINT LeftFoot
			{
				OFFSET 2.562200 -7.039590 0.000000 
				CHANNELS 3 Zrotation Yrotation Xrotation
				JOINT LeftToeBase
				{
					OFFSET 0.157640 -0.433110 2.322550 
					CHANNELS 3 Zrotation Yrotation Xrotation
					End Site
					{
						OFFSET 0.000000 0.000000 0.000000 
					}
				}
			}
		}
	}
	JOINT RightUpLeg
	{
		OFFSET -1.305520 -1.794630 0.839290 
		CHANNELS 3 Zrotation Yrotation Xrotation
		JOINT RightLeg
		{
			OFFSET -2.542530 -6.985550 0.000000 
			CHANNELS 3 Zrotation Yrotation Xrotation
			JOINT RightFoot
			{
				OFFSET -2.568260 -7.056230 0.000000 
				CHANNELS 3 Zrotation Yrotation Xrotation
				JOINT RightToeBase
				{
					OFFSET -0.164730 -0.452590 2.363150 
					CHANNELS 3 Zrotation Yrotation Xrotation
					End Site
					{
						OFFSET 0.000000 0.000000 0.000000 
					}
				}
			}
		}
	}
	JOINT Spine
	{
		OFFSET 0.028270 2.035590 -0.193380 
		CHANNELS 3 Zrotation Yrotation Xrotation
		JOINT Spine1
		{
			OFFSET 0.056720 2.048850 -0.042750 
			CHANNELS 3 Zrotation Yrotation Xrotation
			JOINT Neck1
			{
				OFFSET -0.054170 1.746240 0.172020 
				CHANNELS 3 Zrotation Yrotation Xrotation
				JOINT Head
				{
					OFFSET 0.104070 1.761360 -0.123970 
					CHANNELS 3 Zrotation Yrotation Xrotation
					End Site
					{
						OFFSET 0.000000 0.000000 0.000000 
					}
				}
			}
			JOINT LeftArm
			{
				OFFSET 3.362410 1.200890 -0.311210 
				CHANNELS 3 Zrotation Yrotation Xrotation
				JOINT LeftForeArm
				{
					OFFSET 4.983000 -0.000000 -0.000000 
					CHANNELS 3 Zrotation Yrotation Xrotation
					JOINT LeftHand
					{
						OFFSET 3.483560 -0.000000 -0.000000 
						CHANNELS 3 Zrotation Yrotation Xrotation
						JOINT LeftHandIndex1
						{
							OFFSET 0.715260 -0.000000 -0.000000 
							CHANNELS 3 Zrotation Yrotation Xrotation
							End Site
							{
								OFFSET 0.000000 0.000000 0.000000 
							}
						}
					}
				}
			}
			JOINT RightArm
			{
				OFFSET -3.136600 1.374050 -0.404650 
				CHANNELS 3 Zrotation Yrotation Xrotation
				JOINT RightForeArm
				{
					OFFSET -5.241900 -0.000000 -0.000000 
					CHANNELS 3 Zrotation Yrotation Xrotation
					JOINT RightHand
					{
						OFFSET -3.444170 -0.000000 -0.000000 
						CHANNELS 3 Zrotation Yrotation Xrotation
						JOINT RightHandIndex1
						{
							OFFSET -0.622530 -0.000000 -0.000000 
							CHANNELS 3 Zrotation Yrotation Xrotation
							End Site
							{
								OFFSET 0.000000 0.000000 0.000000 
							}
						}
					}
				}
			}
		}
	}
}
MOTION
Frames: 17
Frame Time: 0.041667
44.802528 17.811915 5.957773 -84.582709 -82.858696 92.666286 -8.680266 -7.643383 -3.541447 -0.260925 3.576494 8.937325 -0.487156 4.725713 -0.297314 0.004300 -0.425300 -1.168700 29.007597 5.000548 -6.552974 -0.297781 -5.147997 12.958264 1.347899 -10.569749 -5.058542 -0.617600 -5.029300 13.992300 1.739506 -0.283444 -5.951758 7.097248 -0.353433 -1.714963 6.671446 -5.837183 5.671702 2.960700 -2.703800 7.068400 -97.119517 0.715911 15.841965 8.223734 -26.878871 -2.358678 2.445652 2.122652 34.891025 -7.125000 0.000000 0.000000 83.166686 1.718690 16.107328 -9.015122 19.862535 -1.599625 -0.652831 0.272813 14.453309 7.125000 0.000000 0.000000 
44.796964 17.811418 5.957077 -85.029046 -82.778168 93.143124 -8.675864 -7.634503 -3.531377 -0.259708 3.576028 8.946720 -0.494019 4.751367 -0.360262 0.004800 -0.448100 -1.231300 29.022264 5.031922 -6.577933 -0.298805 -5.160282 12.981945 1.342692 -10.545461 -5.078542 -0.608900 -4.994400 13.892500 1.155013 -0.412473 -6.035471 4.487229 -0.541139 -1.951439 8.807912 -5.927257 6.229206 3.703500 -2.543600 7.321900 -94.837462 0.873850 16.458344 8.545488 -26.650804 -2.358442 2.333115 2.071508 33.884992 -7.125000 0.000000 0.000000 85.413768 1.498376 15.995124 -9.002783 19.901477 -1.595754 -0.663220 0.280590 14.495734 7.125000 0.000000 0.000000 
44.790307 17.810027 5.957376 -85.788925 -82.826884 93.922083 -8.747644 -7.618112 -3.493583 -0.262212 3.564733 8.905768 -0.507321 4.827260 -0.376523 0.004400 -0.427700 -1.175100 28.967111 5.018500 -6.570704 -0.299409 -5.160182 12.984105 1.327033 -10.455618 -5.041143 -0.620700 -5.041700 14.027600 1.153079 -0.415766 -5.967932 4.519375 -0.536817 -1.716503 8.834058 -5.939536 6.210924 3.704400 -2.540700 7.344300 -94.829130 0.644311 16.585071 8.503176 -26.628670 -2.353151 2.346997 2.096781 33.870673 -7.125000 0.000000 0.000000 85.429831 1.690224 15.991828 -9.035447 19.961049 -1.604393 -0.667790 0.276076 14.506285 7.125000 0.000000 0.000000 
44.794083 17.818075 5.965821 -84.899607 -82.904555 93.117484 -8.877104 -7.774811 -3.599593 -0.257704 3.607674 9.023995 -0.499666 4.776892 -0.521030 0.007600 -0.561700 -1.543500 28.819365 4.838983 -6.769417 -0.304123 -5.181087 13.040926 1.305288 -10.330705 -5.014258 -0.616800 -5.026300 13.983700 1.170761 -0.497915 -5.916611 4.506675 -0.554769 -1.499981 6.004365 -6.120015 7.005488 2.321800 -2.756100 7.733900 -94.735796 0.497807 17.373151 8.715628 -26.941770 -2.405391 2.330620 2.166706 33.004320 -7.125000 0.000000 0.000000 85.469171 1.976185 15.519039 -9.051079 19.974393 -1.613423 -0.660919 0.292101 15.253971 7.125000 0.000000 0.000000 
44.779676 17.807444 5.955985 -87.495235 -82.845543 95.647159 -8.767570 -7.522362 -3.492759 -0.260275 3.578471 8.935769 -0.512897 4.851163 -0.504189 0.005200 -0.467200 -1.283700 28.957371 5.039320 -6.580538 -0.305113 -5.177819 13.044892 1.298900 -10.290858 -5.036413 -0.619400 -5.036700 14.013200 1.169830 -0.389446 -5.998690 4.612289 -0.518138 -1.845760 8.806915 -5.940200 6.286658 3.677800 -2.537700 7.387300 -94.791311 0.699336 16.916556 8.524253 -26.666417 -2.358201 2.358619 2.119015 33.656483 -7.125000 0.000000 0.000000 85.402107 1.583893 15.829498 -9.065991 20.005604 -1.619842 -0.661469 0.283676 14.728149 7.125000 0.000000 0.000000 
44.775006 17.806450 5.955885 -88.080244 -82.831037 96.246417 -8.749744 -7.645720 -3.409101 -0.259576 3.587556 8.956090 -0.520196 4.879024 -0.726918 0.001000 -0.202100 -0.555200 28.975489 5.054148 -6.583074 -0.307664 -5.187990 13.075316 1.286718 -10.220652 -5.033867 -0.625400 -5.060700 14.081700 1.175974 -0.379178 -5.959719 4.640185 -0.508621 -1.740146 8.777213 -5.991544 6.364019 3.645500 -2.551300 7.479000 -94.798510 0.462823 16.824691 8.429703 -26.554682 -2.333368 2.346080 2.102803 34.017744 -7.125000 0.000000 0.000000 85.393400 1.655006 15.785176 -9.061603 20.004620 -1.627543 -0.651668 0.297305 14.782767 7.125000 0.000000 0.000000 
44.771528 17.805655 5.955190 -88.687212 -82.806060 96.878385 -8.705012 -7.688408 -3.388443 -0.258965 3.594623 8.969295 -0.524851 4.901594 -0.806867 0.000100 -0.062500 -0.171800 29.012841 5.097136 -6.601152 -0.309962 -5.198301 13.103502 1.283823 -10.204947 -5.005433 -0.618500 -5.033000 14.002600 1.177887 -0.334005 -5.882734 4.594948 -0.460704 -1.538651 6.399272 -6.161165 5.375095 2.490000 -2.793500 6.935900 -94.794599 0.121364 16.735956 8.366555 -26.507451 -2.321116 2.327015 2.125885 34.436585 -7.125000 0.000000 0.000000 85.438148 1.910048 15.737923 -9.090154 20.042523 -1.632610 -0.656105 0.291877 14.765887 7.125000 0.000000 0.000000 
44.767753 17.804761 5.954593 -89.610904 -82.811922 97.817352 -8.706801 -7.604544 -3.432838 -0.257092 3.607385 8.999473 -0.528938 4.923521 -0.821512 0.001300 0.237000 0.651100 29.008875 5.159554 -6.614929 -0.314698 -5.217183 13.161192 1.274982 -10.153066 -5.023665 -0.622600 -5.049400 14.049600 1.190003 -0.349926 -5.889254 4.669062 -0.474599 -1.505774 7.389118 -5.959813 5.731012 2.976500 -2.633600 7.089300 -94.774203 0.226325 16.781395 8.372511 -26.504937 -2.318528 2.321072 2.101544 34.464245 -7.125000 0.000000 0.000000 85.433193 1.820210 15.757111 -9.103577 20.073721 -1.640257 -0.653989 0.297073 14.697951 7.125000 0.000000 0.000000 
44.763480 17.803569 5.954593 -90.400993 -82.803742 98.620542 -8.709846 -7.610047 -3.409371 -0.256064 3.616682 9.017503 -0.537714 4.972184 -0.848845 0.007000 0.540600 1.485600 29.016928 5.178293 -6.614283 -0.316582 -5.223111 13.180191 1.264396 -10.091516 -4.986784 -0.617000 -5.027100 13.985700 1.197093 -0.335613 -5.841318 4.675838 -0.454582 -1.370569 6.459969 -6.104601 5.211242 2.521600 -2.770400 6.807700 -94.771821 0.035533 16.825788 8.296274 -26.438862 -2.306099 2.346361 2.104645 34.524533 -7.125000 0.000000 0.000000 85.447952 1.956886 15.862100 -9.126873 20.109221 -1.641801 -0.660649 0.290518 14.326595 7.125000 0.000000 0.000000 
44.759605 17.802575 5.954196 -91.278658 -82.821254 99.514869 -8.734678 -7.562141 -3.404436 -0.256774 3.615924 9.006980 -0.543699 5.004144 -0.914762 0.005500 0.478100 1.313700 28.997699 5.243951 -6.626977 -0.321531 -5.245696 13.244906 1.258964 -10.060785 -5.017144 -0.611100 -5.003300 13.917800 1.192411 -0.293890 -5.771619 4.740339 -0.434732 -1.212927 7.352177 -6.046130 5.901234 2.930100 -2.651000 7.317300 -94.779150 -0.396292 16.831883 8.189501 -26.318423 -2.281650 2.349460 2.099719 34.663548 -7.125000 0.000000 0.000000 85.501706 2.319717 15.710768 -9.135996 20.121112 -1.643002 -0.663716 0.285195 14.384573 7.125000 0.000000 0.000000 
44.755432 17.801979 5.954693 -92.127958 -82.819493 100.377279 -8.751311 -7.526147 -3.377883 -0.257114 3.616008 9.000086 -0.551533 5.045548 -0.981440 0.005400 0.475300 1.306000 28.988644 5.229762 -6.656364 -0.326546 -5.265218 13.303505 1.240431 -9.952642 -5.006949 -0.609400 -4.996400 13.898400 1.191000 -0.270150 -5.726057 4.723275 -0.411117 -1.067023 6.410808 -6.170064 5.378292 2.464700 -2.781500 7.010000 -94.768764 -0.561567 16.760832 8.103307 -26.220853 -2.260251 2.345824 2.073276 34.809144 -7.125000 0.000000 0.000000 85.534489 2.405789 15.714410 -9.176914 20.186372 -1.649446 -0.672905 0.272815 14.518710 7.125000 0.000000 0.000000 
44.751656 17.800985 5.954693 -93.039388 -82.845445 101.303467 -8.796169 -7.494360 -3.350058 -0.258653 3.611135 8.979194 -0.549141 5.032947 -1.033807 0.006400 0.515400 1.416300 28.954091 5.267953 -6.642285 -0.328441 -5.270797 13.321938 1.230880 -9.897360 -4.977185 -0.609700 -4.997600 13.901700 1.203373 -0.287434 -5.678296 4.819297 -0.422459 -0.916173 7.329022 -6.040527 5.857908 2.913600 -2.644900 7.322900 -94.810361 -0.727679 16.699564 8.049783 -26.172061 -2.252656 2.363459 2.072907 34.915485 -7.125000 0.000000 0.000000 85.535684 2.600095 15.691683 -9.130181 20.115818 -1.640565 -0.665908 0.283159 14.517400 7.125000 0.000000 0.000000 
44.748080 17.800489 5.954792 -94.146530 -82.842462 102.447987 -8.814521 -7.452949 -3.329382 -0.260326 3.605877 8.948402 -0.571151 5.156427 -1.066401 0.006800 0.531300 1.459800 28.953382 5.324564 -6.662380 -0.333463 -5.294944 13.388311 1.220963 -9.841991 -4.989787 -0.596000 -4.942300 13.744100 1.184572 -0.288176 -5.511717 4.719298 -0.410599 -0.313187 6.480692 -6.148518 5.141966 2.482600 -2.761100 6.936800 -94.728377 -1.188035 16.734122 7.961555 -26.092852 -2.236567 2.374765 2.072304 34.930465 -7.125000 0.000000 0.000000 85.691124 3.087191 15.341396 -9.024922 19.956277 -1.611166 -0.662649 0.289327 14.990496 7.125000 0.000000 0.000000 
44.745596 17.799793 5.954097 -95.051910 -82.830217 103.380516 -8.803333 -7.439717 -3.345924 -0.259525 3.612741 8.965756 -0.568528 5.136911 -1.161871 0.008100 0.582300 1.600100 28.951412 5.366103 -6.690132 -0.335440 -5.297701 13.401415 1.211452 -9.784518 -4.896457 -0.595800 -4.941600 13.742100 1.186584 -0.280806 -5.563173 4.754408 -0.414562 -0.503573 7.387360 -6.014806 5.690720 2.921300 -2.625000 7.247200 -94.679293 -1.072192 16.726404 7.955636 -26.059893 -2.231533 2.367420 2.080870 34.947620 -7.125000 0.000000 0.000000 85.723786 2.979831 15.490981 -9.039267 19.974863 -1.612215 -0.664688 0.289281 14.489648 7.125000 0.000000 0.000000 
44.741721 17.798800 5.954693 -95.830009 -82.813145 104.188417 -8.807295 -7.453613 -3.334088 -0.260362 3.608954 8.947171 -0.589532 5.249955 -1.204948 0.007300 0.551300 1.515000 28.958890 5.428240 -6.710369 -0.339025 -5.312641 13.445869 1.205697 -9.750717 -4.925508 -0.601200 -4.963500 13.804400 1.185454 -0.301695 -5.542476 4.696582 -0.416191 -0.414307 6.496338 -6.092619 5.137209 2.493900 -2.737300 6.887400 -94.672268 -1.137270 16.457729 7.855756 -25.936729 -2.211117 2.376309 2.071761 35.131671 -7.125000 0.000000 0.000000 85.785347 2.963944 15.552398 -9.041426 19.980126 -1.610170 -0.668486 0.284765 14.691989 7.125000 0.000000 0.000000 
44.738740 17.798502 5.955388 -96.529553 -82.809115 104.886653 -8.812099 -7.387081 -3.325352 -0.262029 3.592648 8.904739 -0.595956 5.281798 -1.226558 0.005300 0.470700 1.293500 28.945999 5.468403 -6.730310 -0.343603 -5.326723 13.495034 1.196630 -9.694259 -4.948068 -0.601100 -4.963000 13.803200 1.211773 -0.372408 -5.701155 4.763922 -0.464032 -0.927608 7.456663 -5.839629 5.563994 3.005700 -2.568000 7.015400 -94.667950 -0.504616 16.397644 7.957152 -26.020875 -2.230384 2.370147 2.079832 35.031100 -7.125000 0.000000 0.000000 85.707354 2.482145 15.733158 -9.007130 19.911493 -1.594721 -0.668543 0.284167 14.714545 7.125000 0.000000 0.000000 
44.734368 17.797210 5.956283 -97.445501 -82.803574 105.835489 -8.833276 -7.332589 -3.345325 -0.262702 3.591071 8.892580 -0.604215 5.327307 -1.244039 0.004300 0.422100 1.159900 28.927360 5.488078 -6.751793 -0.345842 -5.333960 13.519298 1.180683 -9.600508 -4.942864 -0.599700 -4.957400 13.787000 1.216104 -0.410621 -5.670502 4.713725 -0.474280 -0.786742 6.559185 -5.891434 4.911410 2.576900 -2.668400 6.593400 -94.643167 -0.490910 16.285899 7.930386 -25.995391 -2.227435 2.380131 2.078812 34.988144 -7.125000 0.000000 0.000000 85.758669 2.473003 15.779139 -9.034702 19.960255 -1.597653 -0.676858 0.274525 14.942501 7.125000 0.000000 0.000000 
